<svg width="34" height="38" viewBox="0 0 34 38" fill="none" xmlns="http://www.w3.org/2000/svg">
<path d="M32 7.33334C32 10.0948 25.2843 12.3333 17 12.3333C8.71573 12.3333 2 10.0948 2 7.33334M32 7.33334C32 4.57192 25.2843 2.33334 17 2.33334C8.71573 2.33334 2 4.57192 2 7.33334M32 7.33334V30.6667C32 33.4333 25.3333 35.6667 17 35.6667C8.66667 35.6667 2 33.4333 2 30.6667V7.33334M32 19C32 21.7667 25.3333 24 17 24C8.66667 24 2 21.7667 2 19" stroke="#1E1E1E" stroke-width="4" stroke-linecap="round" stroke-linejoin="round"/>
</svg>
